<svg width="100" height="100" viewBox="0 0 100 100" fill="none" xmlns="http://www.w3.org/2000/svg">
<mask id="mask0_534_3572" style="mask-type:alpha" maskUnits="userSpaceOnUse" x="8" y="8" width="84" height="84">
<path fill-rule="evenodd" clip-rule="evenodd" d="M8.3335 50.0002C8.3335 27.0002 27.0002 8.3335 50.0002 8.3335C73.0002 8.3335 91.6668 27.0002 91.6668 50.0002C91.6668 73.0002 73.0002 91.6668 50.0002 91.6668C27.0002 91.6668 8.3335 73.0002 8.3335 50.0002ZM23.7502 52.9168L38.7085 67.8752C40.3335 69.5002 43.0002 69.5002 44.5835 67.8752L76.2085 36.2502C77.8335 34.6252 77.8335 32.0002 76.2085 30.3752C74.5835 28.7502 71.9585 28.7502 70.3335 30.3752L41.6668 59.0418L29.6252 47.0418C28.0002 45.4168 25.3752 45.4168 23.7502 47.0418C22.9699 47.8203 22.5315 48.8772 22.5315 49.9793C22.5315 51.0815 22.9699 52.1384 23.7502 52.9168Z" fill="black"/>
</mask>
<g mask="url(#mask0_534_3572)">
<rect width="100" height="100" fill="#00C88C"/>
</g>
</svg>
