<svg width="114" height="48" viewBox="0 0 114 48" fill="none" xmlns="http://www.w3.org/2000/svg">
<path d="M2.58215 5.16406C16.8701 5.16406 31.1581 5.16406 45.879 5.16406C45.879 5.9553 45.879 6.74654 45.879 7.56176C32.3823 7.56176 18.8856 7.56176 4.97985 7.56176C4.97985 12.4309 4.97985 17.3001 4.97985 22.3168C5.77109 22.3168 6.56233 22.3168 7.37754 22.3168C7.37754 28.3576 7.37754 34.3984 7.37754 40.6223C20.1743 40.6223 32.9711 40.6223 46.1556 40.6223C46.1556 41.3983 46.1556 42.1743 46.1556 42.9739C65.9214 42.9739 85.6872 42.9739 106.052 42.9739C106.052 37.0091 106.052 31.0444 106.052 24.8989C106.843 24.8989 107.634 24.8989 108.45 24.8989C108.45 19.1777 108.45 13.4564 108.45 7.56176C95.1963 7.56176 81.9431 7.56176 68.2882 7.56176C68.2882 6.77052 68.2882 5.97928 68.2882 5.16406C82.3327 5.16406 96.3772 5.16406 110.847 5.16406C110.847 11.6918 110.847 18.2195 110.847 24.945C110.071 24.945 109.295 24.945 108.496 24.945C108.496 31.701 108.496 38.457 108.496 45.4177C87.9083 45.4177 67.3208 45.4177 46.1095 45.4177C46.1095 44.6264 46.1095 43.8352 46.1095 43.02C32.5215 43.02 18.9335 43.02 4.93374 43.02C4.93374 36.2031 4.93374 29.3863 4.93374 22.3629C4.15772 22.3629 3.38169 22.3629 2.58215 22.3629C2.58215 16.6873 2.58215 11.0117 2.58215 5.16406Z" fill="white"/>
<path d="M30.5245 14.8932C31.2245 14.8932 31.9244 14.8932 32.6456 14.8932C33.0728 15.3428 33.0728 15.3428 33.1369 15.5648C33.2422 15.8745 33.4023 16.1372 33.5769 16.4114C33.6625 16.5467 33.7448 16.684 33.8275 16.8211C34.0271 17.1503 34.228 17.4787 34.4294 17.8067C34.4593 17.8554 34.4891 17.9041 34.5198 17.9543C34.6887 18.2289 34.8621 18.4997 35.0433 18.7664C35.0652 18.7294 35.0872 18.6924 35.1098 18.6543C35.1245 18.6295 35.1393 18.6047 35.1545 18.5791C35.1883 18.5222 35.222 18.4653 35.2558 18.4084C35.3524 18.2457 35.449 18.083 35.5456 17.9203C35.7918 17.5057 35.7918 17.5057 36.0379 17.091C36.057 17.0588 36.0762 17.0266 36.0959 16.9933C36.1339 16.9292 36.1718 16.8651 36.2097 16.8009C36.3024 16.6441 36.396 16.4881 36.4921 16.3334C36.6809 16.027 36.8394 15.7468 36.9309 15.3944C37.0304 15.1867 37.1636 15.0308 37.3487 14.8932C37.5168 14.8452 37.6737 14.8497 37.8473 14.8571C37.9172 14.8579 37.9172 14.8579 37.9885 14.8587C38.1362 14.8608 38.2837 14.8654 38.4314 14.8701C38.532 14.872 38.6326 14.8737 38.7331 14.8752C38.9787 14.8792 39.2242 14.8854 39.4698 14.8932C39.4759 15.5063 39.482 16.1194 39.4878 16.7325C39.4905 17.0174 39.4933 17.3024 39.4962 17.5874C39.5122 19.1794 39.5181 20.7709 39.5159 22.3629C38.7399 22.3629 37.9638 22.3629 37.1643 22.3629C37.1491 21.313 37.1339 20.2631 37.1182 19.1814C36.5476 20.1027 36.5476 20.1027 36.064 21.029C35.7653 21.6318 35.7653 21.6318 35.4578 21.7878C35.0945 21.8946 34.7404 21.8856 34.3977 21.7174C34.1204 21.4768 33.9796 21.1397 33.8284 20.8123C33.6979 20.5461 33.5351 20.3006 33.3747 20.0517C33.3172 19.9604 33.2599 19.869 33.2027 19.7775C33.1785 19.7391 33.1544 19.7007 33.1295 19.6612C33.0592 19.5481 32.9907 19.4339 32.9222 19.3197C32.907 20.3239 32.8918 21.3282 32.8761 22.3629C32.1001 22.3629 31.3241 22.3629 30.5245 22.3629C30.5245 19.8979 30.5245 17.4329 30.5245 14.8932Z" fill="white"/>
<path d="M40.6686 14.8936C41.3685 14.8936 42.0685 14.8936 42.7896 14.8936C43.2462 15.4016 43.2462 15.4016 43.3201 15.6434C43.4356 15.9737 43.6057 16.2466 43.7954 16.5391C43.8573 16.6388 43.9189 16.7387 43.9802 16.8388C44.0114 16.8896 44.0426 16.9403 44.0748 16.9926C44.1792 17.1628 44.2825 17.3336 44.3858 17.5045C44.4035 17.5337 44.4211 17.5629 44.4393 17.5931C44.5248 17.7344 44.6102 17.8759 44.6953 18.0175C44.8506 18.2747 45.0077 18.5258 45.1873 18.7668C45.2074 18.7323 45.2276 18.6978 45.2483 18.6623C45.8673 17.6026 45.8673 17.6026 46.148 17.1327C46.1755 17.0867 46.2029 17.0407 46.2312 16.9932C46.2869 16.9011 46.3436 16.8096 46.4014 16.7188C46.5853 16.4258 46.7338 16.1366 46.8461 15.8097C46.9908 15.431 47.2133 15.237 47.4928 14.8936C48.1927 14.8936 48.8927 14.8936 49.6138 14.8936C49.629 17.3586 49.6443 19.8236 49.6599 22.3633C48.8839 22.3633 48.1079 22.3633 47.3083 22.3633C47.2931 21.2982 47.2779 20.233 47.2622 19.1356C47.034 19.5312 46.8058 19.9269 46.5706 20.3345C46.1733 21.0005 46.1733 21.0005 46.0786 21.1519C46.0142 21.258 46.0142 21.258 45.9603 21.3813C45.8713 21.5632 45.8069 21.6876 45.6183 21.7735C45.2646 21.8524 44.8797 21.856 44.5418 21.7178C44.2539 21.4668 44.0943 21.1128 43.9307 20.7738C43.7826 20.4671 43.602 20.1856 43.4179 19.8993C43.3607 19.8082 43.3037 19.717 43.2467 19.6257C43.1726 19.5073 43.0977 19.3902 43.0202 19.274C43.0049 20.2934 42.9897 21.3129 42.9741 22.3633C42.2132 22.3633 41.4524 22.3633 40.6686 22.3633C40.6686 19.8983 40.6686 17.4333 40.6686 14.8936Z" fill="white"/>
<path d="M84.1959 14.8933C84.9234 14.8904 85.651 14.8876 86.4005 14.8846C86.7424 14.8827 86.7424 14.8827 87.0912 14.8808C87.3741 14.8802 87.3741 14.8802 87.5074 14.8801C87.5986 14.8799 87.6898 14.8794 87.781 14.8787C88.8299 14.8709 89.9457 14.9112 90.7579 15.6656C91.1349 16.0632 91.2227 16.4959 91.2172 17.028C91.184 17.4778 91.013 17.8464 90.6974 18.167C90.5791 18.2671 90.4576 18.3582 90.3285 18.4437C90.4527 18.539 90.5795 18.6252 90.7118 18.7088C91.1515 19.0035 91.4245 19.3516 91.5417 19.876C91.6314 20.4306 91.5493 20.9531 91.2375 21.4295C90.7975 22.0058 90.0912 22.2199 89.4042 22.3418C89.1764 22.3683 88.9529 22.3691 88.7239 22.3682C88.6491 22.3683 88.6491 22.3683 88.5728 22.3683C88.4122 22.3682 88.2515 22.3679 88.0909 22.3675C87.9914 22.3674 87.892 22.3674 87.7925 22.3674C87.4246 22.3671 87.0566 22.3665 86.6887 22.3659C85.8661 22.3649 85.0435 22.364 84.1959 22.363C84.1959 19.898 84.1959 17.433 84.1959 14.8933ZM86.6858 16.6915C86.6858 17.0415 86.6858 17.3915 86.6858 17.7521C86.8893 17.7563 87.0925 17.76 87.296 17.7622C87.365 17.7631 87.4341 17.7644 87.5031 17.766C88.0456 17.7857 88.0456 17.7857 88.5302 17.5676C88.6348 17.3946 88.6468 17.2623 88.6224 17.0604C88.5126 16.884 88.4398 16.8009 88.2429 16.7305C88.0671 16.6911 87.9149 16.681 87.735 16.6825C87.7048 16.6827 87.6745 16.6828 87.6434 16.6829C87.548 16.6834 87.4527 16.6846 87.3573 16.6858C87.2921 16.6862 87.227 16.6867 87.1618 16.687C87.0031 16.688 86.8445 16.6898 86.6858 16.6915ZM86.6858 19.4581C86.6858 19.8233 86.6858 20.1885 86.6858 20.5647C86.9435 20.5679 87.201 20.5707 87.4586 20.5723C87.5462 20.573 87.6338 20.574 87.7213 20.5752C87.8475 20.5769 87.9736 20.5776 88.0997 20.5782C88.1387 20.579 88.1776 20.5797 88.2177 20.5804C88.4883 20.5805 88.6616 20.5216 88.8904 20.3717C88.982 20.2319 88.9963 20.0824 88.9913 19.9192C88.9331 19.7478 88.8858 19.667 88.7406 19.559C88.5074 19.4509 88.2907 19.452 88.0367 19.4536C87.9981 19.4537 87.9594 19.4537 87.9196 19.4538C87.7966 19.4541 87.6735 19.4546 87.5504 19.4552C87.4668 19.4555 87.3832 19.4557 87.2997 19.4559C87.0951 19.4563 86.8905 19.4572 86.6858 19.4581Z" fill="white"/>
<path d="M82.1595 15.8382C82.8789 16.5181 83.2815 17.4338 83.3272 18.4183C83.352 19.5188 83.0421 20.5216 82.2748 21.3372C81.4719 22.1559 80.3956 22.5451 79.26 22.5586C77.9628 22.5618 76.8645 22.2547 75.8962 21.3486C75.086 20.4933 74.8554 19.4783 74.8694 18.332C74.8964 17.3947 75.3482 16.4501 76.0302 15.8038C77.7785 14.3458 80.4369 14.3244 82.1595 15.8382ZM78.005 17.2009C77.5441 17.696 77.4356 18.2138 77.4495 18.8735C77.4717 19.3363 77.6764 19.7666 78.007 20.0921C78.3716 20.3904 78.7858 20.5079 79.253 20.4896C79.7242 20.435 80.0585 20.2291 80.3688 19.8731C80.7259 19.3592 80.806 18.8193 80.7163 18.2047C80.6079 17.7012 80.3422 17.3094 79.9077 17.0287C79.3009 16.6689 78.541 16.7167 78.005 17.2009Z" fill="white"/>
<path d="M57.9597 14.8933C58.6159 14.8914 59.2721 14.8895 59.9482 14.8875C60.1542 14.8867 60.3601 14.8858 60.5723 14.885C60.827 14.8845 60.827 14.8845 60.9468 14.8845C61.0291 14.8843 61.1115 14.884 61.1938 14.8835C62.2906 14.8775 63.3975 14.9879 64.2396 15.7724C64.7538 16.3234 64.9875 16.9765 64.9828 17.7203C64.9825 17.7629 64.9823 17.8054 64.982 17.8493C64.9694 18.5566 64.7403 19.1076 64.2547 19.6254C64.0622 19.8063 63.8504 19.9569 63.6312 20.1036C63.6741 20.1659 63.6741 20.1659 63.7178 20.2294C63.8582 20.4332 63.9983 20.6373 64.1384 20.8414C64.167 20.8831 64.1956 20.9248 64.2251 20.9677C64.3154 21.0994 64.4056 21.2312 64.4957 21.363C64.524 21.4042 64.5523 21.4454 64.5814 21.4878C64.725 21.698 64.8654 21.9097 65.0017 22.1247C65.0302 22.1696 65.0587 22.2145 65.088 22.2607C65.1094 22.2944 65.1308 22.3282 65.1528 22.363C64.8001 22.378 64.4475 22.3895 64.0945 22.3964C63.9306 22.3998 63.7669 22.4043 63.603 22.4117C62.4579 22.4618 62.4579 22.4618 62.209 22.2372C62.1011 22.1055 62.0304 21.9623 61.9648 21.8059C61.9004 21.6624 61.8109 21.5425 61.7203 21.414C61.6569 21.3183 61.5935 21.2225 61.5303 21.1267C61.4659 21.0293 61.4015 20.932 61.3371 20.8347C61.3093 20.7927 61.2816 20.7507 61.253 20.7074C61.195 20.6156 61.195 20.6156 61.1413 20.5647C60.8217 20.5419 60.8217 20.5419 60.4957 20.5186C60.4957 21.1273 60.4957 21.7359 60.4957 22.363C59.6589 22.363 58.822 22.363 57.9597 22.363C57.9597 19.898 57.9597 17.433 57.9597 14.8933ZM60.4957 16.876C60.4957 17.439 60.4957 18.002 60.4957 18.582C60.6774 18.5849 60.859 18.5877 61.0462 18.5907C61.1026 18.5919 61.159 18.5932 61.2171 18.5945C61.5593 18.5971 61.8858 18.5853 62.1629 18.3644C62.1833 18.3373 62.2038 18.3102 62.2248 18.2823C62.2462 18.2552 62.2676 18.2281 62.2897 18.2002C62.4291 17.9811 62.4056 17.725 62.3862 17.4754C62.3064 17.2358 62.1776 17.111 61.9712 16.9682C61.6697 16.8502 61.372 16.8655 61.0519 16.8702C60.7766 16.8731 60.7766 16.8731 60.4957 16.876Z" fill="white"/>
<path d="M22.1325 14.8936C22.9694 14.8936 23.8063 14.8936 24.6685 14.8936C24.6708 15.1967 24.673 15.4998 24.6754 15.8121C24.677 16.005 24.6787 16.1979 24.6804 16.3909C24.6832 16.6965 24.6859 17.0022 24.688 17.3079C24.6897 17.5545 24.6918 17.8012 24.6943 18.0478C24.6951 18.1416 24.6958 18.2353 24.6963 18.3291C24.661 19.3125 24.661 19.3125 25.0551 20.1744C25.318 20.4119 25.584 20.4462 25.9252 20.4379C26.1942 20.4141 26.386 20.3423 26.5734 20.1443C26.892 19.7322 26.8878 19.1976 26.8913 18.6991C26.8917 18.6577 26.8922 18.6162 26.8926 18.5735C26.8941 18.4381 26.8952 18.3026 26.8964 18.1671C26.8973 18.0726 26.8983 17.9781 26.8993 17.8836C26.9018 17.636 26.9041 17.3883 26.9063 17.1407C26.9091 16.8429 26.9121 16.5452 26.9151 16.2475C26.9196 15.7962 26.9237 15.3449 26.9279 14.8936C27.7496 14.8936 28.5712 14.8936 29.4178 14.8936C29.4234 16.0396 29.4234 16.0396 29.4246 16.5316C29.4254 16.8661 29.4264 17.2006 29.4282 17.5351C29.4298 17.8051 29.4306 18.0751 29.4309 18.345C29.4312 18.4476 29.4317 18.5501 29.4324 18.6526C29.4401 19.7436 29.3172 20.782 28.5302 21.614C27.6144 22.4833 26.4799 22.5799 25.2813 22.554C24.3892 22.5171 23.5286 22.1375 22.9164 21.4872C22.1813 20.5848 22.1107 19.5772 22.119 18.4598C22.1193 18.3565 22.1195 18.2531 22.1196 18.1498C22.1201 17.8802 22.1215 17.6107 22.123 17.3411C22.1247 17.0164 22.1253 16.6916 22.1261 16.3669C22.1274 15.8758 22.1301 15.3847 22.1325 14.8936Z" fill="white"/>
<path d="M50.8127 14.8936C52.8213 14.8936 54.8298 14.8936 56.8992 14.8936C56.8992 15.5326 56.8992 16.1717 56.8992 16.8302C55.7123 16.8302 54.5255 16.8302 53.3027 16.8302C53.3027 17.104 53.3027 17.3779 53.3027 17.6601C54.3526 17.6601 55.4025 17.6601 56.4842 17.6601C56.4842 18.2688 56.4842 18.8774 56.4842 19.5045C55.4343 19.5045 54.3844 19.5045 53.3027 19.5045C53.3027 19.8088 53.3027 20.1132 53.3027 20.4267C54.5352 20.4267 55.7677 20.4267 57.0375 20.4267C57.0375 21.0658 57.0375 21.7049 57.0375 22.3633C54.9833 22.3633 52.9292 22.3633 50.8127 22.3633C50.8127 19.8983 50.8127 17.4333 50.8127 14.8936Z" fill="white"/>
<path d="M98.3516 15.3546C98.3236 15.5952 98.2461 15.7919 98.1497 16.0113C98.1344 16.0467 98.1191 16.0822 98.1034 16.1187C98.0548 16.2311 98.0058 16.3433 97.9568 16.4555C97.9237 16.5319 97.8905 16.6084 97.8575 16.6849C97.7766 16.8718 97.6953 17.0585 97.6139 17.2451C97.4353 17.1864 97.2604 17.123 97.0858 17.0534C96.4075 16.7869 95.5955 16.5793 94.8732 16.7984C94.7007 16.8629 94.7007 16.8629 94.6167 17.0145C94.601 17.1403 94.5922 17.2125 94.67 17.3157C95.003 17.5809 95.5776 17.6194 95.9856 17.7004C96.8983 17.8903 97.8589 18.0964 98.4222 18.9155C98.7238 19.4257 98.7453 20.0237 98.6443 20.5976C98.5491 20.9419 98.3953 21.2139 98.1672 21.4872C98.1407 21.5193 98.1143 21.5515 98.087 21.5846C97.4959 22.2365 96.5498 22.5078 95.6987 22.5571C95.5291 22.5617 95.3599 22.5628 95.1902 22.5621C95.1298 22.5619 95.0694 22.5617 95.0071 22.5615C94.5126 22.5558 94.0399 22.5105 93.5562 22.4094C93.5238 22.4029 93.4915 22.3965 93.4581 22.3899C92.932 22.2834 92.3922 22.1098 91.9424 21.8099C91.9692 21.5876 92.0374 21.4015 92.131 21.2001C92.145 21.1692 92.1591 21.1383 92.1735 21.1064C92.2182 21.0084 92.2633 20.9106 92.3084 20.8128C92.3385 20.7468 92.3686 20.6807 92.3987 20.6147C92.6294 20.1092 92.6294 20.1092 92.7262 19.9194C92.9251 19.9823 93.1125 20.0585 93.3026 20.1442C94.1663 20.5208 95.1751 20.7324 96.0922 20.4266C96.0922 20.3049 96.0922 20.1832 96.0922 20.0578C95.7046 19.827 95.2969 19.7363 94.8617 19.6428C92.8805 19.2117 92.8805 19.2117 92.3165 18.413C92.0066 17.8817 91.9556 17.2839 92.0865 16.686C92.27 16.0359 92.6596 15.5606 93.2334 15.2163C94.7534 14.3922 96.85 14.5871 98.3516 15.3546Z" fill="white"/>
<path d="M21.1642 15.3543C21.1366 15.5825 21.0651 15.7784 20.974 15.9876C20.9599 16.0207 20.9457 16.0539 20.9311 16.0881C20.8862 16.1933 20.8408 16.2983 20.7954 16.4033C20.7648 16.4745 20.7343 16.5458 20.7039 16.6171C20.4858 17.1261 20.4858 17.1261 20.4265 17.2448C20.2476 17.1872 20.0729 17.1227 19.8984 17.0531C19.2201 16.7866 18.4081 16.579 17.6858 16.7981C17.5133 16.8626 17.5133 16.8626 17.4294 17.0142C17.4136 17.14 17.4048 17.2122 17.4826 17.3154C17.8156 17.5806 18.3902 17.6191 18.7982 17.7001C19.7058 17.8889 20.6063 18.0921 21.2103 18.8586C21.5182 19.3949 21.5653 19.9964 21.4555 20.5994C21.3647 20.9183 21.2296 21.18 21.0259 21.4407C20.9973 21.4788 20.9687 21.5169 20.9393 21.5562C20.4308 22.1546 19.5475 22.4529 18.7856 22.539C17.4512 22.6391 15.9173 22.5395 14.755 21.8096C14.7857 21.6127 14.8523 21.446 14.9319 21.2637C14.9448 21.234 14.9577 21.2043 14.971 21.1736C14.9983 21.111 15.0256 21.0484 15.0531 20.9859C15.0948 20.8909 15.1362 20.7957 15.1776 20.7006C15.2924 20.4371 15.4083 20.1754 15.5389 19.9191C15.7371 19.9817 15.9232 20.0579 16.1124 20.1439C16.9715 20.5206 17.9944 20.7298 18.9049 20.4263C18.9087 20.3683 18.9125 20.3103 18.9164 20.2505C18.9185 20.2179 18.9207 20.1853 18.9229 20.1517C18.9126 20.0522 18.9126 20.0522 18.8341 19.9829C18.6845 19.899 18.5307 19.8555 18.366 19.8125C18.3303 19.8028 18.2947 19.7932 18.2579 19.7832C17.9908 19.712 17.722 19.6484 17.4528 19.5854C15.6059 19.1531 15.6059 19.1531 15.1066 18.3485C14.794 17.7877 14.7819 17.176 14.9376 16.5627C15.1589 15.8796 15.6144 15.4565 16.2305 15.1237C17.7198 14.4067 19.7209 14.6166 21.1642 15.3543Z" fill="white"/>
<path d="M69.0259 14.8936C70.6845 14.8936 72.343 14.8936 74.0518 14.8936C74.0574 16.1661 74.0574 16.1661 74.0586 16.7119C74.0594 17.0832 74.0604 17.4544 74.0623 17.8256C74.0638 18.1252 74.0646 18.4248 74.065 18.7243C74.0652 18.8382 74.0657 18.952 74.0665 19.0659C74.0759 20.5639 74.0759 20.5639 73.7521 21.176C73.7363 21.2064 73.7204 21.2369 73.7041 21.2683C73.3781 21.8607 72.8791 22.197 72.2494 22.4119C71.1755 22.7213 69.9156 22.6263 68.9337 22.0866C68.6616 21.9155 68.4121 21.7257 68.1959 21.4872C68.2609 21.2892 68.3554 21.1704 68.4985 21.0204C68.6964 20.8086 68.8814 20.5905 69.0635 20.3649C69.2146 20.1808 69.3732 20.0037 69.5331 19.8273C69.687 19.8933 69.778 19.9751 69.8904 20.0982C70.1453 20.3587 70.4072 20.5057 70.7781 20.5189C71.0476 20.49 71.2029 20.4118 71.3775 20.1961C71.5324 19.9638 71.5214 19.6604 71.5253 19.3899C71.5262 19.3327 71.5271 19.2755 71.5281 19.2165C71.5288 19.155 71.5296 19.0935 71.5304 19.0321C71.5313 18.9684 71.5323 18.9048 71.5333 18.8412C71.5358 18.6746 71.5381 18.5081 71.5403 18.3416C71.5427 18.1712 71.5452 18.0009 71.5478 17.8306C71.5527 17.4971 71.5573 17.1636 71.5619 16.8302C70.725 16.8302 69.8881 16.8302 69.0259 16.8302C69.0259 16.1911 69.0259 15.552 69.0259 14.8936Z" fill="white"/>
<path d="M53.9943 2.58203C54.6029 2.58203 55.2116 2.58203 55.8386 2.58203C55.8386 3.20589 55.8386 3.82975 55.8386 4.47252C56.3712 4.47252 56.9038 4.47252 57.4525 4.47252C57.4525 3.84866 57.4525 3.2248 57.4525 2.58203C58.0611 2.58203 58.6698 2.58203 59.2969 2.58203C59.2969 4.36232 59.2969 6.14261 59.2969 7.97684C58.6882 7.97684 58.0796 7.97684 57.4525 7.97684C57.4525 7.32255 57.4525 6.66826 57.4525 5.99413C56.9199 5.99413 56.3873 5.99413 55.8386 5.99413C55.8386 6.64843 55.8386 7.30272 55.8386 7.97684C55.23 7.97684 54.6214 7.97684 53.9943 7.97684C53.9943 6.19656 53.9943 4.41627 53.9943 2.58203Z" fill="white"/>
<path d="M51.1355 24.7607C52.2938 24.755 52.2938 24.755 53.4756 24.7492C53.7175 24.7475 53.9595 24.7458 54.2088 24.7441C54.509 24.7433 54.509 24.7433 54.6505 24.7431C54.7473 24.7428 54.844 24.7422 54.9408 24.7412C56.2001 24.7295 57.3812 24.9136 58.3401 25.8039C58.9789 26.4745 59.1817 27.3223 59.1679 28.2241C59.1427 29.0184 58.8245 29.7157 58.2652 30.2735C57.8963 30.6166 57.8963 30.6166 57.7292 30.6166C57.8884 30.919 58.0693 31.1977 58.2681 31.4754C58.4948 31.7947 58.7168 32.1159 58.927 32.4463C58.9712 32.5143 59.0184 32.5801 59.0663 32.6454C59.0968 32.6454 59.1272 32.6454 59.1586 32.6454C59.591 31.6627 60.022 30.6793 60.4496 29.6944C60.7765 28.9415 61.1053 28.1893 61.4358 27.4379C61.6123 27.0363 61.7884 26.6345 61.9635 26.2322C61.9817 26.1905 61.9998 26.1487 62.0186 26.1057C62.1058 25.9054 62.1929 25.705 62.28 25.5045C62.3111 25.433 62.3422 25.3615 62.3733 25.2901C62.3873 25.2577 62.4013 25.2253 62.4158 25.192C62.4793 25.046 62.5455 24.9032 62.6168 24.7607C63.6058 24.7607 64.5949 24.7607 65.6139 24.7607C66.0223 25.6901 66.4306 26.6195 66.8358 27.5503C67.1037 28.1656 67.3727 28.7804 67.6427 29.3947C68.0006 30.209 68.3566 31.0241 68.7114 31.8397C68.8049 32.0543 68.8988 32.2688 68.993 32.4832C69.015 32.5334 69.0371 32.5836 69.0598 32.6353C69.0993 32.7253 69.1389 32.8153 69.1786 32.9052C69.1954 32.9434 69.2121 32.9816 69.2293 33.021C69.2508 33.0697 69.2508 33.0697 69.2728 33.1195C69.3026 33.1987 69.3026 33.1987 69.3026 33.291C68.2375 33.291 67.1724 33.291 66.075 33.291C65.884 32.8326 65.7017 32.3705 65.5217 31.9077C64.563 31.8925 63.6044 31.8772 62.6168 31.8616C62.6016 31.9377 62.5863 32.0137 62.5707 32.0921C62.5373 32.1877 62.502 32.2826 62.4653 32.3769C62.4446 32.4302 62.424 32.4836 62.4027 32.5385C62.3703 32.6214 62.3703 32.6214 62.3372 32.706C62.3154 32.7621 62.2937 32.8182 62.2712 32.8761C62.2175 33.0144 62.1636 33.1527 62.1096 33.291C61.3364 33.3202 60.5634 33.3421 59.7899 33.3555C59.4306 33.3619 59.0716 33.3706 58.7125 33.3849C58.3991 33.3974 58.086 33.4053 57.7724 33.4081C57.6065 33.4097 57.4413 33.4134 57.2756 33.4226C56.2763 33.4758 56.2763 33.4758 55.9336 33.1699C55.6764 32.8799 55.4947 32.5397 55.3192 32.1965C55.2076 31.9865 55.0741 31.7965 54.9338 31.6051C54.732 31.3221 54.732 31.3221 54.732 31.216C54.5647 31.216 54.3973 31.216 54.2248 31.216C54.2248 31.9008 54.2248 32.5855 54.2248 33.291C53.2054 33.291 52.1859 33.291 51.1355 33.291C51.1355 30.476 51.1355 27.661 51.1355 24.7607ZM51.4583 25.0835C51.4583 27.6854 51.4583 30.2874 51.4583 32.9682C52.2647 32.9682 53.0712 32.9682 53.9021 32.9682C53.9021 32.2835 53.9021 31.5987 53.9021 30.8933C54.9165 30.9394 54.9165 30.9394 55.1324 31.12C55.2001 31.2363 55.2001 31.2363 55.2594 31.363C55.3088 31.4509 55.3584 31.5388 55.4082 31.6265C55.4449 31.6953 55.4449 31.6953 55.4824 31.7655C55.6204 32.0121 55.7839 32.241 55.9453 32.4725C56.0038 32.5582 56.0622 32.644 56.1205 32.7297C56.2029 32.8549 56.2029 32.8549 56.2998 32.9682C56.379 32.9725 56.4584 32.9736 56.5378 32.9734C56.614 32.9734 56.614 32.9734 56.6916 32.9734C56.7469 32.9732 56.8021 32.9729 56.859 32.9727C56.9152 32.9726 56.9715 32.9726 57.0294 32.9725C57.2098 32.9722 57.3902 32.9717 57.5707 32.9711C57.6926 32.9709 57.8146 32.9706 57.9366 32.9705C58.2363 32.9699 58.536 32.9692 58.8358 32.9682C58.7317 32.7832 58.6266 32.6027 58.5064 32.4277C58.4793 32.3881 58.4522 32.3485 58.4242 32.3078C58.3955 32.2661 58.3668 32.2244 58.3372 32.1815C58.3074 32.1378 58.2775 32.0942 58.2467 32.0492C58.0852 31.8132 57.9229 31.5777 57.7605 31.3423C57.7287 31.296 57.6969 31.2498 57.6641 31.2021C57.6026 31.1126 57.5408 31.0232 57.4789 30.934C57.4512 30.8937 57.4236 30.8534 57.395 30.8119C57.3705 30.7763 57.3459 30.7407 57.3206 30.7041C57.2681 30.6166 57.2681 30.6166 57.2681 30.5244C57.3527 30.4695 57.3527 30.4695 57.4698 30.4062C58.1269 30.0233 58.5735 29.473 58.7781 28.7407C58.9402 27.9832 58.846 27.127 58.4208 26.4668C57.8962 25.6969 57.1127 25.3241 56.2228 25.1447C55.7461 25.0566 55.2735 25.0603 54.7904 25.0655C54.7044 25.0657 54.6183 25.0659 54.5323 25.066C54.2185 25.067 53.9046 25.0696 53.5908 25.0719C52.5352 25.0777 52.5352 25.0777 51.4583 25.0835ZM62.8473 25.0835C62.5825 25.6661 62.3183 26.2477 62.0639 26.8347C61.9804 27.0275 61.8965 27.2202 61.8127 27.4129C61.7954 27.4527 61.7781 27.4925 61.7603 27.5335C61.5876 27.9305 61.4135 28.327 61.2393 28.7233C60.8203 29.6763 60.4031 30.63 59.9885 31.5849C59.9739 31.6185 59.9593 31.6521 59.9443 31.6867C59.8625 31.8751 59.7809 32.0635 59.6996 32.252C59.6638 32.3349 59.6279 32.4176 59.592 32.5004C59.5711 32.549 59.5502 32.5977 59.5287 32.6478C59.5105 32.6899 59.4923 32.7321 59.4736 32.7755C59.4297 32.8724 59.4297 32.8724 59.4352 32.9682C60.2417 32.9682 61.0481 32.9682 61.879 32.9682C61.9627 32.7495 62.0464 32.5307 62.1326 32.3054C62.1591 32.2364 62.1856 32.1674 62.2129 32.0964C62.2335 32.0423 62.254 31.9882 62.2753 31.9325C62.3071 31.8492 62.3071 31.8492 62.3397 31.7642C62.3913 31.64 62.3913 31.64 62.3862 31.5388C63.497 31.554 64.6078 31.5692 65.7522 31.5849C65.9196 32.011 66.087 32.437 66.2594 32.876C66.2746 32.9064 66.2899 32.9368 66.3055 32.9682C67.1272 32.9682 67.9489 32.9682 68.7954 32.9682C68.7233 32.7517 68.6435 32.5458 68.5519 32.3376C68.5369 32.3033 68.5219 32.2689 68.5065 32.2335C68.4569 32.12 68.4072 32.0067 68.3574 31.8933C68.3222 31.8128 68.287 31.7324 68.2519 31.6519C68.1412 31.399 68.0303 31.1461 67.9194 30.8933C67.9018 30.8532 67.8842 30.8132 67.8661 30.7719C67.7108 30.418 67.5554 30.0641 67.3999 29.7103C67.1487 29.1386 66.8989 28.5663 66.6496 27.9938C66.4588 27.5554 66.2675 27.1173 66.0752 26.6797C66.0561 26.6362 66.0369 26.5927 66.0173 26.5479C65.9245 26.3369 65.8317 26.1259 65.7389 25.915C65.7054 25.8389 65.672 25.7629 65.6386 25.6869C65.6234 25.6524 65.6082 25.618 65.5925 25.5825C65.5784 25.5504 65.5643 25.5183 65.5498 25.4852C65.5376 25.4575 65.5254 25.4299 65.5129 25.4014C65.4679 25.2962 65.4258 25.1897 65.3833 25.0835C64.5464 25.0835 63.7096 25.0835 62.8473 25.0835Z" fill="white"/>
<path d="M60.1268 2.58203C61.5724 2.58203 63.0179 2.58203 64.5072 2.58203C64.5072 3.03852 64.5072 3.495 64.5072 3.96532C63.6551 3.96532 62.803 3.96532 61.9251 3.96532C61.9251 4.16313 61.9251 4.36094 61.9251 4.56474C62.6707 4.56474 63.4163 4.56474 64.1845 4.56474C64.1845 5.00601 64.1845 5.44728 64.1845 5.90192C63.4389 5.90192 62.6933 5.90192 61.9251 5.90192C61.9251 6.11494 61.9251 6.32797 61.9251 6.54745C62.8076 6.54745 63.6902 6.54745 64.5995 6.54745C64.5995 7.01915 64.5995 7.49085 64.5995 7.97684C63.1235 7.97684 61.6475 7.97684 60.1268 7.97684C60.1268 6.19656 60.1268 4.41627 60.1268 2.58203Z" fill="white"/>
<path d="M80.5533 24.7607C81.4054 24.7607 82.2576 24.7607 83.1355 24.7607C83.7021 25.3982 83.7021 25.3982 83.7897 25.6898C83.9077 26.0448 84.0829 26.3381 84.2882 26.6512C84.3489 26.7489 84.4092 26.8468 84.4692 26.9448C84.4996 26.9941 84.5299 27.0435 84.5612 27.0943C84.7686 27.4325 84.9741 27.7719 85.1795 28.1112C85.3416 28.3789 85.5048 28.6458 85.6715 28.9106C85.9653 28.4523 86.2443 27.9858 86.5188 27.5158C86.9172 26.8335 86.9172 26.8335 87.0656 26.5849C87.0878 26.5476 87.11 26.5102 87.1328 26.4717C87.1769 26.3992 87.2222 26.3275 87.2687 26.2565C87.4067 26.042 87.4941 25.846 87.5667 25.6008C87.6888 25.2795 87.6888 25.2795 88.1614 24.7607C89.0135 24.7607 89.8656 24.7607 90.7435 24.7607C90.7435 27.5757 90.7435 30.3907 90.7435 33.291C89.8001 33.291 88.8567 33.291 87.8848 33.291C87.8695 32.2411 87.8543 31.1912 87.8386 30.1094C87.58 30.5507 87.3213 30.992 87.0548 31.4466C86.4224 32.494 86.4224 32.494 86.3631 32.5532C86.1646 32.5722 85.9659 32.5776 85.7667 32.5821C85.6999 32.584 85.633 32.5868 85.5663 32.5906C85.016 32.6211 85.016 32.6211 84.8252 32.4637C84.7401 32.3439 84.6751 32.2242 84.611 32.0922C84.5672 32.0198 84.5228 31.9478 84.4779 31.8762C84.4347 31.8032 84.3916 31.7301 84.3487 31.657C84.131 31.2895 83.9066 30.9269 83.6771 30.5667C83.6441 30.5149 83.6441 30.5149 83.6104 30.4621C83.591 30.4318 83.5716 30.4014 83.5516 30.3701C83.5044 30.2939 83.5044 30.2939 83.4582 30.2017C83.443 31.2211 83.4278 32.2406 83.4121 33.291C82.4687 33.291 81.5253 33.291 80.5533 33.291C80.5533 30.476 80.5533 27.661 80.5533 24.7607ZM80.8761 25.0835C80.8761 27.6855 80.8761 30.2874 80.8761 32.9682C81.6065 32.9682 82.3369 32.9682 83.0894 32.9682C83.1046 31.6749 83.1198 30.3815 83.1355 29.0489C83.3333 29.3685 83.5311 29.688 83.7349 30.0172C83.9469 30.3584 83.9469 30.3584 84.1621 30.6975C84.3169 30.94 84.4585 31.1824 84.5868 31.44C84.8673 32.0028 84.8673 32.0028 85.3667 32.3515C85.6673 32.4183 85.915 32.3945 86.1787 32.2305C86.4926 31.8985 86.6902 31.4802 86.8923 31.0745C87.0691 30.7201 87.2702 30.3824 87.4753 30.0439C87.567 29.892 87.6572 29.7391 87.7475 29.5864C87.8822 29.359 88.0207 29.1343 88.1614 28.9106C88.1621 28.9848 88.1621 28.9848 88.1629 29.0605C88.1674 29.526 88.1721 29.9914 88.1771 30.4569C88.1796 30.6962 88.1821 30.9355 88.1843 31.1748C88.1865 31.4057 88.189 31.6365 88.1915 31.8673C88.1925 31.9555 88.1933 32.0437 88.1941 32.1319C88.1952 32.2551 88.1966 32.3783 88.1981 32.5015C88.1983 32.5383 88.1986 32.575 88.1989 32.6129C88.1975 32.7966 88.1975 32.7966 88.2536 32.9682C88.9688 32.9682 89.684 32.9682 90.4208 32.9682C90.4208 30.3663 90.4208 27.7643 90.4208 25.0835C89.7513 25.0835 89.0818 25.0835 88.392 25.0835C88.1193 25.5197 87.8485 25.9546 87.5879 26.3976C87.5407 26.4776 87.4935 26.5575 87.4463 26.6375C87.4133 26.6933 87.3803 26.7492 87.3474 26.8051C87.1664 27.1117 86.9846 27.4177 86.8027 27.7237C86.4401 28.334 86.0783 28.9447 85.7176 29.5561C85.6053 29.4524 85.529 29.3454 85.4505 29.2145C85.4256 29.1733 85.4008 29.132 85.3752 29.0896C85.3484 29.0448 85.3216 29 85.294 28.9538C85.2355 28.8569 85.1771 28.76 85.1185 28.6631C85.0881 28.6127 85.0577 28.5622 85.0264 28.5102C84.8769 28.2634 84.7251 28.0179 84.5735 27.7723C84.3094 27.344 84.0475 26.9144 83.7868 26.4841C83.5714 26.1286 83.3556 25.7733 83.1355 25.4207C83.1169 25.3908 83.0983 25.361 83.0791 25.3302C83.0011 25.1999 83.0011 25.1999 82.9049 25.0835C82.2354 25.0835 81.5659 25.0835 80.8761 25.0835Z" fill="white"/>
<path d="M69.3488 24.7607C70.2009 24.7607 71.053 24.7607 71.9309 24.7607C72.4456 25.3204 72.4456 25.3204 72.5134 25.5822C72.6201 25.929 72.7877 26.2025 72.9856 26.5043C73.0472 26.6033 73.1084 26.7026 73.1694 26.802C73.2158 26.8773 73.2158 26.8773 73.2631 26.9541C73.4369 27.2367 73.6089 27.5204 73.781 27.804C73.7974 27.8309 73.8137 27.8578 73.8305 27.8855C73.8775 27.963 73.9246 28.0405 73.9716 28.1181C74.0154 28.1901 74.0154 28.1901 74.0601 28.2636C74.1158 28.3563 74.1708 28.4495 74.225 28.5432C74.2495 28.5855 74.2741 28.6278 74.2994 28.6714C74.3314 28.7275 74.3314 28.7275 74.364 28.7847C74.3828 28.811 74.4015 28.8374 74.4208 28.8645C74.4512 28.8645 74.4817 28.8645 74.513 28.8645C74.5885 28.7572 74.5885 28.7572 74.6659 28.6174C74.6811 28.5912 74.6962 28.5651 74.7118 28.5381C74.7447 28.4811 74.7775 28.4241 74.8101 28.3669C74.8981 28.2129 74.9872 28.0595 75.0762 27.9061C75.0946 27.8745 75.1129 27.8428 75.1318 27.8102C75.3147 27.495 75.5042 27.1839 75.6946 26.8731C75.9877 26.3939 76.2721 25.9104 76.5501 25.4223C76.59 25.3525 76.59 25.3525 76.6306 25.2813C76.6652 25.2204 76.6652 25.2204 76.7004 25.1584C76.7811 25.0228 76.8693 24.892 76.9568 24.7607C77.8089 24.7607 78.661 24.7607 79.539 24.7607C79.539 27.5757 79.539 30.3907 79.539 33.291C78.5956 33.291 77.6522 33.291 76.6802 33.291C76.665 32.2411 76.6497 31.1912 76.6341 30.1094C76.2689 30.7257 76.2689 30.7257 75.8963 31.3544C75.7669 31.5717 75.6373 31.7888 75.5073 32.0057C75.4633 32.0792 75.4633 32.0792 75.4186 32.1541C75.3908 32.2004 75.3631 32.2466 75.3345 32.2942C75.3105 32.3344 75.2864 32.3745 75.2617 32.4158C75.2047 32.5071 75.2047 32.5071 75.1586 32.5532C73.9621 32.7335 73.9621 32.7335 73.5702 32.4804C73.387 32.2755 73.2927 32.0255 73.1922 31.7728C73.0769 31.5112 72.9158 31.2768 72.7609 31.0374C72.7031 30.9454 72.6455 30.8533 72.5879 30.7611C72.4793 30.5878 72.3672 30.4181 72.2537 30.2478C72.2384 31.252 72.2232 32.2563 72.2075 33.291C71.2641 33.291 70.3207 33.291 69.3488 33.291C69.3488 30.476 69.3488 27.661 69.3488 24.7607ZM69.6715 25.0835C69.6715 27.6855 69.6715 30.2874 69.6715 32.9682C70.4019 32.9682 71.1323 32.9682 71.8848 32.9682C71.9 31.6749 71.9152 30.3815 71.9309 29.0489C72.1743 29.4445 72.4178 29.8402 72.6686 30.2478C72.8934 30.6127 72.8934 30.6127 73.1218 30.9753C73.2291 31.1464 73.3218 31.3206 73.4114 31.5016C73.6798 32.0303 73.6798 32.0303 74.1627 32.3411C74.4584 32.4 74.7107 32.3843 74.9741 32.2305C75.2888 31.9048 75.4732 31.4795 75.6674 31.0757C75.8014 30.8004 75.9631 30.5427 76.124 30.2824C76.1803 30.189 76.2365 30.0955 76.2926 30.0019C76.319 29.958 76.3453 29.9141 76.3725 29.8689C76.4899 29.6736 76.607 29.4782 76.7234 29.2824C76.7427 29.2502 76.7621 29.218 76.782 29.1848C76.8786 29.0349 76.8786 29.0349 76.9107 28.8645C76.9411 28.8645 76.9716 28.8645 77.0029 28.8645C77.0029 30.2187 77.0029 31.573 77.0029 32.9682C77.7333 32.9682 78.4637 32.9682 79.2162 32.9682C79.2162 30.3663 79.2162 27.7643 79.2162 25.0835C78.5467 25.0835 77.8772 25.0835 77.1874 25.0835C76.9991 25.366 76.8192 25.6469 76.6485 25.9394C76.5958 26.029 76.5432 26.1186 76.4905 26.2081C76.462 26.2567 76.4335 26.3052 76.4041 26.3552C76.2298 26.6513 76.0544 26.9466 75.879 27.242C75.8604 27.2733 75.8418 27.3046 75.8227 27.3369C75.5656 27.7697 75.3079 28.2022 75.049 28.6339C75.0214 28.6801 74.9937 28.7263 74.9652 28.7739C74.8309 28.9975 74.6952 29.2196 74.5527 29.4382C74.5056 29.5098 74.5056 29.5098 74.513 29.6022C74.4826 29.6022 74.4522 29.6022 74.4208 29.6022C74.4017 29.5517 74.4017 29.5517 74.3821 29.5001C74.332 29.38 74.2758 29.2731 74.2095 29.1613C74.174 29.1013 74.174 29.1013 74.1379 29.04C74.1123 28.9973 74.0868 28.9546 74.0606 28.9106C74.0339 28.8657 74.0072 28.8208 73.9798 28.7746C73.7516 28.3919 73.5176 28.0129 73.2821 27.6347C73.1249 27.3818 72.9701 27.1276 72.8156 26.8731C72.5872 26.4973 72.3581 26.1218 72.1279 25.7471C72.0947 25.693 72.0615 25.6389 72.0283 25.5848C71.9821 25.5095 71.9359 25.4343 71.8896 25.3591C71.8631 25.3159 71.8365 25.2726 71.8092 25.2281C71.7544 25.1342 71.7544 25.1342 71.7003 25.0835C71.0308 25.0835 70.3613 25.0835 69.6715 25.0835Z" fill="white"/>
<path d="M91.7579 24.7607C94.0708 24.7607 96.3836 24.7607 98.7666 24.7607C98.7666 25.552 98.7666 26.3432 98.7666 27.1584C97.4732 27.1584 96.1798 27.1584 94.8473 27.1584C94.8473 27.3715 94.8473 27.5845 94.8473 27.804C95.9885 27.804 97.1297 27.804 98.3055 27.804C98.3055 28.5648 98.3055 29.3256 98.3055 30.1094C97.1643 30.1094 96.0231 30.1094 94.8473 30.1094C94.8473 30.3681 94.8473 30.6268 94.8473 30.8933C96.2015 30.8933 97.5557 30.8933 98.951 30.8933C98.951 31.6845 98.951 32.4758 98.951 33.291C96.5773 33.291 94.2036 33.291 91.7579 33.291C91.7579 30.476 91.7579 27.661 91.7579 24.7607ZM92.0807 25.0835C92.0807 27.6855 92.0807 30.2874 92.0807 32.9682C94.2414 32.9682 96.4021 32.9682 98.6283 32.9682C98.6283 32.39 98.6283 31.8118 98.6283 31.2161C97.2588 31.2161 95.8893 31.2161 94.4784 31.2161C94.4784 30.7444 94.4784 30.2727 94.4784 29.7867C95.6348 29.7867 96.7912 29.7867 97.9827 29.7867C97.9827 29.2389 97.9827 28.6911 97.9827 28.1267C96.8263 28.1267 95.6699 28.1267 94.4784 28.1267C94.4784 27.7007 94.4784 27.2746 94.4784 26.8357C95.787 26.8357 97.0956 26.8357 98.4438 26.8357C98.4438 26.2575 98.4438 25.6792 98.4438 25.0835C96.344 25.0835 94.2442 25.0835 92.0807 25.0835Z" fill="white"/>
<path d="M48.5994 2.58203C50.2427 2.58203 51.8861 2.58203 53.5792 2.58203C53.5792 3.05373 53.5792 3.52543 53.5792 4.01143C53.0618 4.01143 52.5445 4.01143 52.0115 4.01143C52.0115 5.32001 52.0115 6.6286 52.0115 7.97684C51.4028 7.97684 50.7942 7.97684 50.1671 7.97684C50.1671 6.66826 50.1671 5.35967 50.1671 4.01143C49.6497 4.01143 49.1324 4.01143 48.5994 4.01143C48.5994 3.53973 48.5994 3.06803 48.5994 2.58203Z" fill="white"/>
<path d="M49.4294 25.2682C49.4899 25.307 49.4899 25.307 49.5517 25.3465C49.8126 25.5251 50.0443 25.7287 50.2709 25.9483C50.3114 25.9867 50.3114 25.9867 50.3527 26.0258C50.4272 26.1003 50.4272 26.1003 50.536 26.2365C50.5163 26.4499 50.3622 26.5551 50.2104 26.6889C50.1829 26.7137 50.1554 26.7384 50.1271 26.7639C50.0486 26.8344 49.9696 26.9044 49.8905 26.9742C49.8578 27.0034 49.8251 27.0326 49.7914 27.0627C49.7022 27.1416 49.612 27.2194 49.5216 27.297C49.4973 27.3179 49.4729 27.3389 49.4479 27.3604C49.1666 27.6025 48.885 27.8439 48.5994 28.0809C48.4481 28.0155 48.3583 27.937 48.2478 27.8157C47.8519 27.411 47.3615 27.1958 46.7992 27.1588C46.2926 27.1582 45.8557 27.2829 45.4496 27.5881C45.0512 27.9864 44.9347 28.4557 44.9076 29.0066C44.9162 29.5131 45.0485 30.0254 45.3896 30.4119C45.796 30.776 46.2681 30.8899 46.8011 30.8935C47.0381 30.8691 47.2666 30.8306 47.4928 30.7552C47.508 30.0553 47.5232 29.3553 47.5389 28.6342C48.4366 28.6342 49.3344 28.6342 50.2594 28.6342C50.2871 29.5611 50.2871 29.5611 50.2931 29.9579C50.2973 30.2282 50.3021 30.4983 50.3115 30.7684C50.3191 30.9864 50.3232 31.2042 50.325 31.4223C50.3263 31.5052 50.3287 31.5882 50.3325 31.6711C50.3598 32.3008 50.3598 32.3008 50.1936 32.4899C50.0047 32.6437 49.7918 32.7391 49.5677 32.8301C49.507 32.857 49.4464 32.884 49.3858 32.9112C48.9688 33.0926 48.5329 33.2269 48.0922 33.3373C48.0619 33.345 48.0316 33.3527 48.0004 33.3606C46.6275 33.6905 45.0288 33.5364 43.8069 32.8186C43.4772 32.6155 43.1994 32.367 42.9279 32.0924C42.8944 32.0593 42.8609 32.0263 42.8264 31.9922C42.0567 31.1862 41.7579 30.1253 41.7608 29.0347C41.7601 28.9787 41.7593 28.9226 41.7585 28.8648C41.758 27.7674 42.1648 26.7644 42.9171 25.9706C44.5252 24.3626 47.4905 24.0211 49.4294 25.2682ZM42.9459 26.4381C42.2201 27.2883 42.0337 28.3873 42.0873 29.4673C42.1688 30.4975 42.691 31.4773 43.4661 32.1538C44.5783 33.036 45.9232 33.2692 47.3127 33.1396C48.1387 33.0352 49.3231 32.7981 49.9366 32.1846C49.9501 32.0446 49.9501 32.0446 49.9471 31.8778C49.9471 31.8463 49.9471 31.8149 49.9471 31.7824C49.947 31.6781 49.9463 31.5738 49.9456 31.4695C49.9454 31.3973 49.9453 31.3251 49.9452 31.2528C49.9448 31.0626 49.9439 30.8723 49.9429 30.682C49.9418 30.4538 49.9414 30.2256 49.9409 29.9974C49.94 29.6506 49.9382 29.3038 49.9366 28.9569C49.2519 28.9569 48.5671 28.9569 47.8617 28.9569C47.8464 29.6264 47.8312 30.296 47.8156 30.9858C47.0697 31.2344 46.3745 31.3427 45.6398 31.003C45.1081 30.7159 44.8132 30.2709 44.6396 29.6997C44.4982 29.0233 44.5654 28.2857 44.9234 27.6875C45.2355 27.2403 45.6311 27.0126 46.1556 26.882C46.9619 26.7782 47.652 26.9007 48.3134 27.393C48.3971 27.4659 48.4769 27.5393 48.5533 27.6198C48.7555 27.5102 48.9097 27.3733 49.0749 27.2163C49.1281 27.1664 49.1814 27.1166 49.2347 27.0668C49.2602 27.0429 49.2858 27.0189 49.3121 26.9943C49.4556 26.8609 49.6035 26.7329 49.7522 26.6054C49.7832 26.5787 49.8142 26.552 49.8462 26.5245C49.9223 26.4591 49.9986 26.3939 50.0749 26.3287C49.8281 25.7566 49.0361 25.4124 48.4962 25.1905C46.5551 24.5113 44.3538 24.8999 42.9459 26.4381Z" fill="white"/>
<path d="M23.3776 24.7607C24.5359 24.755 24.5359 24.755 25.7176 24.7492C25.9596 24.7475 26.2015 24.7458 26.4508 24.7441C26.7511 24.7433 26.7511 24.7433 26.8925 24.7431C26.9893 24.7428 27.0861 24.7422 27.1829 24.7412C28.4422 24.7295 29.6232 24.9136 30.5822 25.8039C31.2313 26.4843 31.4273 27.339 31.4132 28.2549C31.3816 29.1094 30.9949 29.8033 30.3862 30.3861C30.1145 30.6166 30.1145 30.6166 29.9712 30.6166C30.1185 30.894 30.2796 31.1522 30.464 31.4062C30.6625 31.6835 30.8558 31.9631 31.0436 32.2477C31.2142 32.5056 31.3896 32.7601 31.5665 33.0137C31.7234 33.2399 31.7234 33.2399 31.7234 33.291C28.6476 33.5476 28.6476 33.5476 28.0553 33.1491C27.6957 32.8353 27.5114 32.3938 27.3636 31.9497C27.2905 31.7361 27.1724 31.5674 27.0337 31.3904C26.9741 31.3083 26.9741 31.3083 26.9741 31.216C26.8067 31.216 26.6394 31.216 26.4669 31.216C26.4669 31.9008 26.4669 32.5855 26.4669 33.291C25.4474 33.291 24.4279 33.291 23.3776 33.291C23.3776 30.476 23.3776 27.661 23.3776 24.7607ZM23.7003 25.0835C23.7003 27.6854 23.7003 30.2874 23.7003 32.9682C24.5068 32.9682 25.3132 32.9682 26.1441 32.9682C26.1441 32.2835 26.1441 31.5987 26.1441 30.8933C26.6463 30.9161 26.6463 30.9161 27.1585 30.9394C27.4233 31.2361 27.4233 31.2361 27.4946 31.3931C27.6425 31.6895 27.8344 31.956 28.0223 32.228C28.0832 32.3163 28.1436 32.405 28.2037 32.4939C28.2226 32.5218 28.2414 32.5497 28.2609 32.5784C28.279 32.6052 28.2971 32.6319 28.3158 32.6595C28.4194 32.8213 28.4194 32.8213 28.5418 32.9682C28.6211 32.9725 28.7005 32.9736 28.7799 32.9734C28.856 32.9734 28.856 32.9734 28.9337 32.9734C28.9889 32.9732 29.0442 32.9729 29.1011 32.9727C29.1573 32.9726 29.2135 32.9726 29.2715 32.9725C29.4519 32.9722 29.6323 32.9717 29.8127 32.9711C29.9347 32.9708 30.0567 32.9706 30.1786 32.9705C30.4784 32.9699 30.7781 32.9692 31.0779 32.9682C30.967 32.7707 30.853 32.5797 30.725 32.3926C30.6933 32.346 30.6615 32.2995 30.6288 32.2515C30.5954 32.2027 30.5619 32.1539 30.5274 32.1036C30.4926 32.0526 30.4578 32.0016 30.4231 31.9506C30.2578 31.7084 30.0917 31.4667 29.9248 31.2256C29.883 31.1652 29.883 31.1652 29.8404 31.1035C29.7883 31.0281 29.736 30.9529 29.6835 30.8777C29.6605 30.8444 29.6374 30.8111 29.6137 30.7767C29.5835 30.7334 29.5835 30.7334 29.5527 30.6892C29.5101 30.6166 29.5101 30.6166 29.5101 30.5244C29.5902 30.4765 29.6723 30.432 29.7551 30.3889C30.3901 30.0276 30.7764 29.4994 30.9966 28.8119C31.1926 28.0764 31.1006 27.2408 30.7301 26.5725C30.2802 25.8645 29.6091 25.4145 28.7998 25.2138C28.2071 25.082 27.6377 25.0589 27.0325 25.0655C26.9464 25.0657 26.8604 25.0659 26.7743 25.066C26.4605 25.067 26.1467 25.0696 25.8329 25.0719C24.7773 25.0777 24.7773 25.0777 23.7003 25.0835Z" fill="white"/>
<path d="M38.9164 25.0375C38.9466 25.0521 38.9768 25.0667 39.0079 25.0817C39.4933 25.3216 39.8768 25.6192 40.2536 26.0058C40.2886 26.0404 40.3236 26.075 40.3597 26.1107C41.1263 26.9115 41.4387 28.0619 41.4282 29.1469C41.4069 29.7832 41.2787 30.4151 40.9913 30.9857C40.96 31.05 40.96 31.05 40.9281 31.1155C40.4226 32.1006 39.5332 32.8213 38.5014 33.1989C37.0593 33.6594 35.4497 33.6282 34.0911 32.9293C33.0311 32.3624 32.2626 31.4164 31.912 30.2669C31.8039 29.8632 31.798 29.4565 31.7954 29.0404C31.7947 28.9542 31.7947 28.9542 31.7939 28.8662C31.8048 27.7124 32.2744 26.6725 33.0744 25.8508C34.5757 24.4281 37.0747 24.1439 38.9164 25.0375ZM33.0144 26.4208C32.2411 27.3787 32.0417 28.5082 32.1476 29.708C32.2609 30.5555 32.7003 31.3073 33.2911 31.9079C33.3437 31.9614 33.3437 31.9614 33.3973 32.0159C34.3435 32.9218 35.6208 33.1793 36.886 33.1656C38.0827 33.1331 39.2194 32.6521 40.0519 31.7812C40.8183 30.9015 41.1563 29.8479 41.0836 28.6802C40.9736 27.5814 40.4834 26.5766 39.6268 25.8647C37.6966 24.3489 34.644 24.5758 33.0144 26.4208Z" fill="white"/>
<path d="M14.755 24.761C15.9176 24.7567 15.9176 24.7567 17.1037 24.7524C17.3469 24.7511 17.5901 24.7498 17.8407 24.7485C18.1416 24.7479 18.1416 24.7479 18.2832 24.7478C18.3804 24.7476 18.4777 24.7471 18.5749 24.7464C19.8748 24.7374 21.0308 24.9205 21.9942 25.8676C22.0392 25.9118 22.0392 25.9118 22.0852 25.9568C22.6553 26.5595 22.8064 27.3566 22.7965 28.1569C22.772 28.9814 22.4882 29.7006 21.902 30.2941C21.1647 30.955 20.2001 31.2732 19.2177 31.267C19.1652 31.2669 19.1652 31.2669 19.1116 31.2668C18.9822 31.2666 18.8527 31.2659 18.7233 31.2653C18.2882 31.2639 18.2882 31.2639 17.8443 31.2624C17.8443 31.932 17.8443 32.6015 17.8443 33.2913C16.8249 33.2913 15.8054 33.2913 14.755 33.2913C14.755 30.4763 14.755 27.6613 14.755 24.761ZM15.0778 25.0838C15.0778 27.6857 15.0778 30.2877 15.0778 32.9685C15.8842 32.9685 16.6907 32.9685 17.5216 32.9685C17.5216 32.299 17.5216 31.6295 17.5216 30.9397C18.4928 30.9483 18.4928 30.9483 18.7946 30.9521C19.8765 30.9601 20.889 30.7543 21.7028 29.9903C22.2584 29.4132 22.4751 28.6987 22.4722 27.9143C22.4562 27.1595 22.1764 26.5283 21.6577 25.9833C21.4641 25.8036 21.2579 25.6697 21.0259 25.5449C20.9867 25.5236 20.9474 25.5024 20.907 25.4806C20.3241 25.1917 19.6653 25.0759 19.0194 25.0785C18.976 25.0785 18.9325 25.0785 18.8877 25.0785C18.748 25.0786 18.6082 25.0789 18.4684 25.0793C18.3818 25.0793 18.2951 25.0794 18.2085 25.0794C17.8883 25.0797 17.568 25.0803 17.2478 25.0809C16.1736 25.0823 16.1736 25.0823 15.0778 25.0838Z" fill="white"/>
<path d="M37.8992 27.252C38.321 27.6547 38.5811 28.1686 38.6047 28.7549C38.6195 29.4703 38.5436 30.1223 38.0388 30.6728C37.6259 31.0631 37.1589 31.2521 36.5937 31.2765C36.1619 31.2643 35.7711 31.1281 35.4121 30.8932C35.3722 30.8676 35.3322 30.8419 35.2911 30.8154C34.7891 30.3267 34.584 29.7203 34.5677 29.0344C34.5788 28.3888 34.7444 27.8321 35.1873 27.3514C35.9336 26.6516 37.1088 26.5859 37.8992 27.252ZM35.4038 27.6234C35.0175 28.0297 34.8888 28.5714 34.8981 29.1204C34.9329 29.6943 35.127 30.1736 35.5505 30.5705C35.8811 30.8453 36.3054 30.9612 36.732 30.9365C37.2395 30.8671 37.5719 30.6438 37.9136 30.2736C38.2862 29.728 38.3581 29.1042 38.2392 28.4628C38.1054 27.9845 37.8485 27.628 37.4409 27.3428C36.7361 26.9671 35.9851 27.0878 35.4038 27.6234Z" fill="white"/>
<path d="M17.5216 26.8818C17.7556 26.8789 17.9895 26.8761 18.2305 26.8731C18.3034 26.8719 18.3762 26.8706 18.4512 26.8693C18.9214 26.8666 19.3584 26.8908 19.7349 27.2046C19.9723 27.4881 20.0263 27.7912 20.0058 28.1527C19.9644 28.485 19.8692 28.7155 19.6052 28.9279C19.3377 29.1253 19.0385 29.1549 18.7149 29.1502C18.6844 29.1501 18.6539 29.15 18.6225 29.1499C18.5101 29.1494 18.3977 29.1481 18.2853 29.1469C18.0333 29.145 17.7813 29.1431 17.5216 29.1412C17.5216 28.3956 17.5216 27.65 17.5216 26.8818ZM17.8444 27.2046C17.8444 27.7371 17.8444 28.2697 17.8444 28.8184C18.0184 28.8212 18.1924 28.8241 18.3718 28.827C18.4527 28.8289 18.4527 28.8289 18.5354 28.8308C18.9015 28.8337 19.2204 28.8101 19.5014 28.559C19.652 28.3127 19.72 28.0795 19.6599 27.7925C19.5742 27.5586 19.4913 27.4362 19.2766 27.3083C19.0654 27.2221 18.8777 27.1988 18.6504 27.2001C18.6079 27.2002 18.5654 27.2003 18.5216 27.2004C18.4684 27.2008 18.4151 27.2012 18.3602 27.2017C18.19 27.2026 18.0198 27.2036 17.8444 27.2046Z" fill="white"/>
<path d="M26.144 26.8817C26.378 26.8789 26.6119 26.876 26.853 26.8731C26.9258 26.8718 26.9986 26.8706 27.0737 26.8693C27.953 26.8641 27.953 26.8641 28.2853 27.1699C28.328 27.2074 28.328 27.2074 28.3715 27.2456C28.5651 27.487 28.6103 27.7357 28.6051 28.0374C28.6057 28.0688 28.6062 28.1002 28.6068 28.1326C28.6052 28.4113 28.5251 28.5918 28.3458 28.8011C28.0219 29.0808 27.7322 29.1488 27.3103 29.1456C27.2658 29.1455 27.2658 29.1455 27.2204 29.1455C27.1104 29.1452 27.0004 29.1446 26.8904 29.144C26.6441 29.143 26.3978 29.1421 26.144 29.1411C26.144 28.3955 26.144 27.6499 26.144 26.8817ZM26.4668 27.2045C26.4668 27.7371 26.4668 28.2696 26.4668 28.8183C26.6408 28.8212 26.8149 28.8241 26.9942 28.827C27.0752 28.8289 27.0752 28.8289 27.1578 28.8308C27.4702 28.8333 27.8153 28.8315 28.0631 28.6147C28.2645 28.3839 28.2816 28.1806 28.2777 27.8866C28.258 27.6857 28.2071 27.594 28.0806 27.4351C27.7462 27.1703 27.3606 27.1983 26.9567 27.2016C26.7951 27.2026 26.6334 27.2035 26.4668 27.2045Z" fill="white"/>
<path d="M53.902 26.8818C54.1359 26.8789 54.3699 26.8761 54.6109 26.8732C54.6837 26.8719 54.7566 26.8706 54.8316 26.8693C55.3331 26.8664 55.7588 26.8919 56.1323 27.2572C56.3774 27.5369 56.3734 27.8237 56.3642 28.1851C56.3374 28.436 56.2785 28.624 56.1152 28.8184C55.7822 29.0848 55.4872 29.1488 55.0682 29.1457C55.0237 29.1456 55.0237 29.1456 54.9783 29.1455C54.8683 29.1453 54.7583 29.1446 54.6484 29.144C54.4021 29.1431 54.1558 29.1421 53.902 29.1412C53.902 28.3956 53.902 27.65 53.902 26.8818ZM54.2247 27.2046C54.2247 27.7371 54.2247 28.2697 54.2247 28.8184C54.3988 28.8213 54.5728 28.8241 54.7521 28.827C54.8331 28.8289 54.8331 28.8289 54.9157 28.8309C55.2282 28.8333 55.5733 28.8316 55.821 28.6147C56.0224 28.3839 56.0395 28.1807 56.0356 27.8867C56.016 27.6857 55.9651 27.594 55.8386 27.4351C55.5042 27.1703 55.1185 27.1983 54.7147 27.2017C54.553 27.2026 54.3913 27.2036 54.2247 27.2046Z" fill="white"/>
<path d="M64.0461 27.2505C64.0765 27.2505 64.1069 27.2505 64.1383 27.2505C64.2648 27.5726 64.3911 27.8949 64.517 28.2173C64.5755 28.3669 64.6341 28.5166 64.6929 28.6662C64.7604 28.8381 64.8276 29.0101 64.8948 29.1822C64.9265 29.2628 64.9265 29.2628 64.9589 29.3451C64.9783 29.3949 64.9977 29.4448 65.0177 29.4961C65.0349 29.5401 65.0521 29.584 65.0698 29.6292C65.1066 29.7404 65.1066 29.7404 65.1066 29.8787C64.4371 29.8787 63.7676 29.8787 63.0778 29.8787C63.1106 29.6818 63.1388 29.544 63.2088 29.3647C63.2262 29.3198 63.2436 29.2749 63.2615 29.2286C63.2803 29.1809 63.299 29.1332 63.3184 29.0841C63.3377 29.0345 63.3569 28.985 63.3768 28.9339C63.4382 28.7762 63.5001 28.6185 63.5619 28.4609C63.6035 28.3541 63.6451 28.2473 63.6867 28.1404C63.7627 27.9456 63.8387 27.7508 63.915 27.5562C63.9303 27.5171 63.9457 27.478 63.9615 27.4377C63.9999 27.3427 63.9999 27.3427 64.0461 27.2505ZM64.0461 28.1727C63.9736 28.3548 63.9014 28.537 63.8294 28.7192C63.8048 28.7812 63.7802 28.8432 63.7556 28.9052C63.7202 28.9942 63.685 29.0832 63.6498 29.1723C63.6286 29.2259 63.6073 29.2795 63.5854 29.3348C63.5336 29.4553 63.5336 29.4553 63.5389 29.556C63.904 29.556 64.2692 29.556 64.6455 29.556C64.4832 29.0918 64.3182 28.6303 64.1383 28.1727C64.1078 28.1727 64.0774 28.1727 64.0461 28.1727Z" fill="white"/>
</svg>
